<svg width="86" height="72" viewBox="0 0 86 72" fill="none" xmlns="http://www.w3.org/2000/svg">
<path d="M34 71.0206C33.7025 73.6917 28.1298 70.0987 26.6839 69.6746C18.152 73.3779 14.8693 70.8383 12.3459 68.1112C13.8368 69.0086 14.392 67.8834 17.9825 67.8028C22.699 67.7467 23.5067 70.3178 26.1962 69.4257C23.5471 68.0625 21.064 66.3909 18.7971 64.4447C18.1209 64.1503 17.2008 64.4009 16.4934 64.2449C9.01821 67.1525 5.12324 59.525 5.12324 59.525C6.37544 60.7414 8.82623 60.3295 12.3442 61.0709C16.7407 62.1014 15.338 64.2467 18.2402 63.9627C15.4229 61.4557 12.9831 58.544 10.9986 55.3204C2.21931 53.6817 1.03975 48.2398 0.840853 45.7002C1.51884 47.3161 3.36601 47.4739 6.31145 49.556C9.83802 52.0097 8.56853 53.9043 10.6353 54.7105C8.69922 51.4677 7.25231 47.9499 6.34258 44.2735C5.82819 43.6858 5.34552 43.0703 4.89667 42.4298C-3.08352 39.6781 1.09164 30.5906 1.09164 30.5906C0.986136 32.3433 1.97026 33.5579 3.68598 36.7565C5.91711 40.7683 4.43661 41.5201 6.1506 43.4813C5.18119 39.2067 4.93555 34.7962 5.42419 30.4382C5.54352 29.4742 4.87246 28.5103 4.76349 27.6112C-0.944052 22.3532 5.39305 15.3216 5.51758 15.1884C4.78598 16.7798 5.21318 18.3064 5.65249 21.9186C6.2734 26.5508 4.64934 26.6507 5.59368 29.2166C5.92238 26.9085 6.45905 24.6357 7.19698 22.4268C8.11711 19.6454 9.82073 17.0988 9.55783 14.1071C7.09667 5.44199 14.3885 2.65879 14.3885 2.65879C13.1692 3.90842 13.7849 6.01685 12.7731 9.58348C11.3151 14.2876 9.56129 13.0467 9.76365 16.4871C11.8045 12.5437 14.8745 8.95077 17.9116 5.82931C20.8519 -1.70705 28.8632 0.220854 28.8632 0.220854C26.3743 0.245391 22.2269 7.70114 18.3475 6.05365C15.4226 8.51552 12.9651 11.497 11.0954 14.8519C17.436 8.39695 22.3635 8.36715 25.238 9.80607C23.0467 9.77101 17.8839 14.8659 13.7866 13.4165C11.7596 14.6872 11.0418 15.1692 10.7512 15.4636C8.79214 19.0313 7.41771 22.8977 6.68158 26.9119C10.9951 18.3239 13.5531 18.1276 17.8148 18.5114C16.1129 18.8445 16.2737 20.902 13.3438 23.0087C10.5506 25.0172 9.16177 25.1119 8.63079 25.0698C6.33912 27.478 6.43252 27.8075 6.19038 30.5153C5.94071 33.4811 6.02834 36.4662 6.45154 39.4117C7.16412 29.8195 10.9328 28.2719 14.4075 27.2203C12.9339 28.1475 13.0896 30.4732 11.5088 33.7419C10.1632 36.5251 8.07906 37.0544 7.56711 37.2016C5.34463 41.4728 8.34887 46.7044 10.0075 50.7443C7.05343 42.0231 10.7374 38.5161 13.0567 36.8143C12.019 38.2164 12.9772 39.8131 12.6883 43.441C12.4427 46.5292 10.6129 48.3011 10.1909 48.6271C9.7083 53.4381 14.961 58.2666 18.0448 61.5073C11.9913 54.8279 14.2398 49.7926 15.6061 47.6036C15.191 49.3106 16.0541 50.5725 17.7179 54.3898C18.9528 57.2238 17.8545 59.1219 17.5882 59.5881C19.0583 63.8786 23.0657 65.3123 26.5819 67.4312C20.5077 63.4369 21.0819 58.8222 21.7997 56.819C21.81 58.2579 22.91 58.2789 24.8298 61.7737C26.7324 65.5419 24.8835 65.6085 27.2322 67.7519C29.1565 68.6597 31.1525 69.4025 33.1992 69.9725C33.4292 70.0311 33.6332 70.1662 33.7785 70.3562C33.9237 70.5463 34.0017 70.7803 34 71.0206Z" fill="#536941"/>
<path d="M72.4112 13.2349C69.4864 15.5448 63.1269 8.95602 60.8499 9.6135C64.3422 7.89422 68.9905 7.82037 75.1283 14.6746C73.2406 11.3095 70.7595 8.31904 67.8066 5.84971C64.0279 6.72869 59.1037 0.751644 57.0205 0.315672C57.0205 0.315672 65.2764 -1.94331 68.2466 5.62469C71.3129 8.76615 74.4106 12.3577 76.4728 16.3148C76.74 13.096 74.8734 13.9767 73.4328 9.39023C72.4043 5.76182 73.0346 3.69797 71.8036 2.44455C71.8036 2.44455 79.4623 6.28743 76.6806 13.9275C76.4152 16.9301 78.1352 19.4827 79.0642 22.2725C79.8086 24.4883 80.3504 26.7679 80.6828 29.0828C81.8667 26.4283 79.3645 26.4143 79.8517 21.768C80.2952 18.1449 81.4983 16.6084 80.7597 15.0122C80.8854 15.1458 86.7979 20.8134 81.6869 27.0049C81.5664 27.956 80.7352 29.3026 80.854 30.3081C81.3464 34.6794 81.0984 39.1031 80.1206 43.3908C81.9977 41.4571 80.3354 40.4023 82.5146 36.3362C84.2485 33.1279 85.3364 32.2208 85.2299 30.4611C86.5517 33.2597 86.9359 38.7235 79.9302 44.1854C79.0093 47.8723 77.5467 51.4002 75.591 54.6523C77.669 53.8595 76.4641 51.7798 80.0245 49.3204C82.993 47.232 84.7933 47.2355 85.4778 45.6146C85.6944 47.5484 83.4104 54.1319 75.2208 55.2623C73.2188 58.4968 70.756 61.418 67.9114 63.9325C70.7786 64.1839 69.7379 62.0287 74.2308 61.0196C77.7825 60.276 79.8901 60.7014 81.1543 59.4814C79.4081 62.8356 76.3978 65.7292 67.3491 64.4142C65.0607 66.3671 62.5537 68.0444 59.879 69.4121C62.6729 70.3421 62.149 68.0057 66.7746 68.0198C70.3997 68.1007 72.3624 68.9937 73.8623 68.0936C71.9188 70.6163 67.3264 73.3851 59.3866 69.66C57.7696 70.0907 52.5521 73.7033 52.0003 71.0118C52.3408 69.2451 57.2388 68.9902 58.8208 67.735C61.0489 66.0439 59.3045 64.9627 61.2148 61.4503C62.8108 58.9259 64.2968 58.2122 64.3073 56.7689C65.1158 58.388 65.3794 63.8007 59.4791 67.4133C63.0361 65.2844 67.0767 63.8517 68.5592 59.5464C68.2903 59.0771 67.4731 56.6898 68.4387 53.7452C69.5702 50.275 70.9794 49.2448 70.5603 47.5326C71.9136 49.1147 73.9968 55.3731 68.1698 61.4204C71.5347 57.683 76.0939 54.095 75.9158 48.5874C75.488 48.2604 73.878 46.8962 73.6301 43.7987C73.3385 40.1597 74.1801 38.1398 73.1342 36.7264C75.137 37.7162 79.2981 42.8054 76.2127 50.6987C77.9257 46.2633 80.9099 41.9669 78.6765 37.1149C78.1527 36.9673 76.307 36.7458 74.9484 33.9506C73.3542 30.672 73.2581 28.0298 71.7704 27.0946C74.683 27.5833 79.4902 30.447 79.8028 39.3229C80.2292 36.3684 80.3176 33.3744 80.0665 30.3996C79.8779 27.8681 79.8185 27.179 77.6009 24.9376C73.7593 25.8042 69.8077 18.5931 67.6023 18.0675C70.9008 17.4856 75.9123 18.507 79.5705 26.7852C78.8195 22.6985 77.4036 18.7646 75.3797 15.1423" fill="#536941"/>
<path d="M36.0738 50V30.1587L49.9262 50H55V22H49.9262V41.8413L36.1141 22H31V50H36.0738Z" fill="#536941"/>
</svg>
